        <svg xmlns:osb="http://www.openswatchbook.org/uri/2009/osb" xmlns:dc="http://purl.org/dc/elements/1.1/"
          xmlns:cc="http://creativecommons.org/ns#" xmlns:rdf="http://www.w3.org/1999/02/22-rdf-syntax-ns#"
          xmlns:svg="http://www.w3.org/2000/svg" xmlns="http://www.w3.org/2000/svg"
          xmlns:sodipodi="http://sodipodi.sourceforge.net/DTD/sodipodi-0.dtd"
          xmlns:inkscape="http://www.inkscape.org/namespaces/inkscape" version="1.1" id="svg2" width="227.10284"
          height="86.741997" viewBox="0 0 227.10283 86.741996" sodipodi:docname="brand.svg"
          inkscape:version="0.92.4 (5da689c313, 2019-01-14)"
          inkscape:export-filename="C:\Users\Temp\pictures\Phito\brand.png" inkscape:export-xdpi="96.93"
          inkscape:export-ydpi="96.93">
          <defs id="defs6">
            <linearGradient id="linearGradient2066" osb:paint="solid">
              <stop style="stop-color:#552582;stop-opacity:1;" offset="0" id="stop2064" />
            </linearGradient>
          </defs>
          <sodipodi:namedview pagecolor="#ffffff" bordercolor="#666666" borderopacity="1" objecttolerance="10"
            gridtolerance="10" guidetolerance="10" inkscape:pageopacity="0" inkscape:pageshadow="2"
            inkscape:window-width="2560" inkscape:window-height="1377" id="namedview4" showgrid="false"
            fit-margin-left="5" fit-margin-top="5" fit-margin-right="5" fit-margin-bottom="5" inkscape:zoom="1.18"
            inkscape:cx="682.12613" inkscape:cy="284.56835" inkscape:window-x="1912" inkscape:window-y="32"
            inkscape:window-maximized="1" inkscape:current-layer="svg2" inkscape:pagecheckerboard="false"
            showborder="true" borderlayer="false" showguides="true" inkscape:guide-bbox="true" />
          <flowRoot xml:space="preserve" id="flowRoot5265"
            style="font-style:normal;font-weight:normal;font-size:40px;line-height:1.25;font-family:sans-serif;letter-spacing:0px;word-spacing:0px;fill:#000000;fill-opacity:1;stroke:none"
            transform="translate(-711.33827,-1297.7773)">
            <flowRegion id="flowRegion5267">
              <rect id="rect5269" width="820" height="466" x="1062" y="491.88867" />
            </flowRegion>
            <flowPara id="flowPara5271" />
          </flowRoot>
          <flowRoot xml:space="preserve" id="flowRoot5273"
            style="font-style:normal;font-weight:normal;font-size:40px;line-height:1.25;font-family:sans-serif;letter-spacing:0px;word-spacing:0px;fill:#000000;fill-opacity:1;stroke:none"
            transform="translate(-711.33827,-1297.7773)">
            <flowRegion id="flowRegion5275">
              <rect id="rect5277" width="802" height="156" x="1060" y="973.88867" />
            </flowRegion>
            <flowPara id="flowPara5279" />
          </flowRoot>
          <flowRoot xml:space="preserve" id="flowRoot5281"
            style="font-style:normal;font-weight:normal;font-size:40px;line-height:1.25;font-family:sans-serif;letter-spacing:0px;word-spacing:0px;fill:#000000;fill-opacity:1;stroke:none"
            transform="translate(-711.33827,-1297.7773)">
            <flowRegion id="flowRegion5283">
              <rect id="rect5285" width="1138" height="476" x="910" y="495.88867" />
            </flowRegion>
            <flowPara id="flowPara5287" />
          </flowRoot>
          <flowRoot xml:space="preserve" id="flowRoot5289"
            style="font-style:normal;font-variant:normal;font-weight:bold;font-stretch:normal;font-size:39.99961853px;line-height:1.25;font-family:Cambria;-inkscape-font-specification:'Cambria, Bold';font-variant-ligatures:normal;font-variant-caps:normal;font-variant-numeric:normal;font-feature-settings:normal;text-align:start;letter-spacing:0px;word-spacing:0px;writing-mode:lr-tb;text-anchor:start;fill-opacity:1;fill-rule:nonzero;stroke:none"
            transform="matrix(1.2720352,0,0,1.9390824,-1115.5898,-974.36786)" inkscape:export-xdpi="96"
            inkscape:export-ydpi="96">
            <flowRegion id="flowRegion5291"
              style="font-style:normal;font-variant:normal;font-weight:bold;font-stretch:normal;font-size:39.99961853px;font-family:Cambria;-inkscape-font-specification:'Cambria, Bold';font-variant-ligatures:normal;font-variant-caps:normal;font-variant-numeric:normal;font-feature-settings:normal;text-align:start;writing-mode:lr-tb;text-anchor:start;fill-opacity:1;fill-rule:nonzero">
              <rect id="rect5293" width="1288" height="534" x="934" y="497.88867"
                style="font-style:normal;font-variant:normal;font-weight:bold;font-stretch:normal;font-size:39.99961853px;font-family:Cambria;-inkscape-font-specification:'Cambria, Bold';font-variant-ligatures:normal;font-variant-caps:normal;font-variant-numeric:normal;font-feature-settings:normal;text-align:start;writing-mode:lr-tb;text-anchor:start;fill-opacity:1;fill-rule:nonzero" />
            </flowRegion>
            <flowPara id="flowPara5295" style="fill-opacity:1">PHITO</flowPara>
          </flowRoot>
          <g aria-label="BUILDING INCLUSION 
" transform="matrix(0.22613967,0,0,0.30919416,-132.70803,-229.8804)"
            style="font-style:normal;font-variant:normal;font-weight:bold;font-stretch:normal;font-size:40px;line-height:1.25;font-family:sans-serif;-inkscape-font-specification:'sans-serif, Bold';font-variant-ligatures:normal;font-variant-caps:normal;font-variant-numeric:normal;font-feature-settings:normal;text-align:start;letter-spacing:0px;word-spacing:0px;writing-mode:lr-tb;text-anchor:start;fill:#fdb927;fill-opacity:1;stroke:none"
            id="flowRoot5330">
            <path
              d="m 946.59375,979.47563 q 0,2.10938 -0.85938,3.76954 -0.83984,1.66015 -2.32421,2.7539 -1.71875,1.28906 -3.78907,1.83594 -2.05078,0.54687 -5.21484,0.54687 H 921.71094 V 959.29985 H 933 q 3.51562,0 5.13672,0.23438 1.64062,0.23437 3.24219,1.03515 1.66015,0.83985 2.46093,2.26563 0.82032,1.40625 0.82032,3.22266 0,2.10937 -1.11329,3.73046 -1.11328,1.60157 -3.14453,2.5 v 0.15625 q 2.85157,0.56641 4.51172,2.34375 1.67969,1.77735 1.67969,4.6875 z m -9.60938,-11.95312 q 0,-0.72266 -0.37109,-1.44531 -0.35156,-0.72266 -1.26953,-1.07422 -0.82031,-0.3125 -2.05078,-0.33203 -1.21094,-0.0391 -3.41797,-0.0391 h -0.70313 v 6.15235 h 1.17188 q 1.77734,0 3.02734,-0.0586 1.25,-0.0586 1.97266,-0.39062 1.01562,-0.44922 1.32812,-1.15234 0.3125,-0.72266 0.3125,-1.66016 z m 1.83594,11.83594 q 0,-1.38672 -0.54687,-2.12891 -0.52735,-0.76172 -1.81641,-1.13281 -0.87891,-0.25391 -2.42187,-0.27344 -1.54297,-0.0195 -3.22266,-0.0195 h -1.64063 v 7.24609 h 0.54688 q 3.16406,0 4.53125,-0.0195 1.36719,-0.0195 2.51953,-0.50781 1.17188,-0.48828 1.60156,-1.28906 0.44922,-0.82032 0.44922,-1.875 z"
              id="path2127" inkscape:connector-curvature="0" />
            <path
              d="m 977.64844,977.85454 q 0,5.39063 -3.28125,8.26172 -3.28125,2.87109 -9.66797,2.87109 -6.38672,0 -9.66797,-2.87109 -3.26172,-2.87109 -3.26172,-8.24219 v -18.57422 h 7.53906 v 18.14453 q 0,3.02735 1.26953,4.51172 1.26954,1.48438 4.1211,1.48438 2.8125,0 4.10156,-1.42578 1.30859,-1.42578 1.30859,-4.57032 v -18.14453 h 7.53907 z"
              id="path2129" inkscape:connector-curvature="0" />
            <path
              d="m 1000.4023,988.38188 h -17.03121 v -5.15625 h 4.76563 V 964.4561 h -4.76563 v -5.15625 h 17.03121 v 5.15625 h -4.76558 v 18.76953 h 4.76558 z"
              id="path2131" inkscape:connector-curvature="0" />
            <path d="m 1027.5313,988.38188 h -20.9766 v -29.08203 h 7.5 v 23.45703 h 13.4766 z" id="path2133"
              inkscape:connector-curvature="0" />
            <path
              d="m 1059.5039,973.87017 q 0,4.0625 -1.8555,7.28515 -1.8554,3.20313 -4.6875,4.92188 -2.1289,1.28906 -4.6679,1.79687 -2.5391,0.50781 -6.0157,0.50781 h -10.2539 v -29.08203 h 10.5469 q 3.5547,0 6.1328,0.60547 2.5782,0.58594 4.336,1.67969 3.0078,1.83594 4.7265,4.96094 1.7383,3.10547 1.7383,7.32422 z m -7.7539,-0.0586 q 0,-2.87109 -1.0547,-4.90234 -1.0351,-2.05078 -3.3008,-3.20313 -1.1523,-0.5664 -2.3632,-0.76172 -1.1915,-0.21484 -3.6133,-0.21484 h -1.8946 v 18.20313 h 1.8946 q 2.6758,0 3.9258,-0.23438 1.25,-0.25391 2.4414,-0.89844 2.0507,-1.17187 3.0078,-3.125 0.957,-1.97265 0.957,-4.86328 z"
              id="path2135" inkscape:connector-curvature="0" />
            <path
              d="m 1080.9492,988.38188 h -17.0312 v -5.15625 h 4.7656 V 964.4561 h -4.7656 v -5.15625 h 17.0312 v 5.15625 h -4.7656 v 18.76953 h 4.7656 z"
              id="path2137" inkscape:connector-curvature="0" />
            <path
              d="m 1113.5469,988.38188 h -7.2266 l -12.3437,-19.96093 v 19.96093 h -6.875 v -29.08203 h 8.9648 l 10.6055,16.66016 v -16.66016 h 6.875 z"
              id="path2139" inkscape:connector-curvature="0" />
            <path
              d="m 1146.7305,986.72173 q -1.9532,0.76172 -5.1758,1.52344 -3.2227,0.74218 -6.4258,0.74218 -7.4219,0 -11.6211,-4.02343 -4.1992,-4.04297 -4.1992,-11.15235 0,-6.77734 4.2383,-10.91797 4.2383,-4.16015 11.8164,-4.16015 2.8711,0 5.4687,0.52734 2.5977,0.50781 5.7813,2.05078 v 6.81641 h -0.8399 q -0.5468,-0.41016 -1.6015,-1.15235 -1.0547,-0.76171 -2.0313,-1.28906 -1.1328,-0.625 -2.6562,-1.07422 -1.5039,-0.44922 -3.2031,-0.44922 -1.9922,0 -3.6133,0.58594 -1.6211,0.58594 -2.9102,1.79688 -1.2305,1.17187 -1.9531,2.98828 -0.7031,1.79687 -0.7031,4.16015 0,4.82422 2.5586,7.38282 2.5586,2.55859 7.5586,2.55859 0.4296,0 0.9375,-0.0195 0.5273,-0.0195 0.957,-0.0586 v -5.70313 h -5.8008 v -5.48828 h 13.418 z"
              id="path2141" inkscape:connector-curvature="0" />
            <path
              d="m 1182.8242,988.38188 h -17.0312 v -5.15625 h 4.7656 V 964.4561 h -4.7656 v -5.15625 h 17.0312 v 5.15625 h -4.7656 v 18.76953 h 4.7656 z"
              id="path2143" inkscape:connector-curvature="0" />
            <path
              d="m 1215.4219,988.38188 h -7.2266 l -12.3437,-19.96093 v 19.96093 h -6.875 v -29.08203 h 8.9648 l 10.6055,16.66016 v -16.66016 h 6.875 z"
              id="path2145" inkscape:connector-curvature="0" />
            <path
              d="m 1236.0273,988.94829 q -3.2421,0 -5.996,-0.95703 -2.7344,-0.95703 -4.7071,-2.85156 -1.9726,-1.89453 -3.0664,-4.72657 -1.0742,-2.83203 -1.0742,-6.54296 0,-3.45704 1.0352,-6.26954 1.0351,-2.8125 3.0078,-4.82421 1.8945,-1.9336 4.6875,-2.98829 2.8125,-1.05468 6.1328,-1.05468 1.8359,0 3.3008,0.21484 1.4843,0.19531 2.7343,0.52734 1.3086,0.3711 2.3633,0.83985 1.0742,0.44922 1.875,0.83984 v 7.05078 h -0.8594 q -0.5468,-0.46875 -1.3867,-1.11328 -0.8203,-0.64453 -1.875,-1.26953 -1.0742,-0.625 -2.3242,-1.05469 -1.25,-0.42968 -2.6758,-0.42968 -1.582,0 -3.0078,0.50781 -1.4258,0.48828 -2.6367,1.64062 -1.1524,1.11328 -1.875,2.94922 -0.7031,1.83594 -0.7031,4.45313 0,2.73437 0.7617,4.57031 0.7812,1.83594 1.9531,2.89062 1.1914,1.07422 2.6563,1.54297 1.4648,0.44922 2.8906,0.44922 1.3672,0 2.6953,-0.41015 1.3477,-0.41016 2.4805,-1.11329 0.957,-0.5664 1.7773,-1.21093 0.8203,-0.64453 1.3477,-1.11328 h 0.7812 v 6.95312 q -1.0937,0.48828 -2.0898,0.91797 -0.9961,0.42969 -2.0899,0.74219 -1.4258,0.41015 -2.6758,0.625 -1.25,0.21484 -3.4375,0.21484 z"
              id="path2147" inkscape:connector-curvature="0" />
            <path d="m 1272.8438,988.38188 h -20.9766 v -29.08203 h 7.5 v 23.45703 h 13.4766 z" id="path2149"
              inkscape:connector-curvature="0" />
            <path
              d="m 1302.8047,977.85454 q 0,5.39063 -3.2813,8.26172 -3.2812,2.87109 -9.6679,2.87109 -6.3867,0 -9.668,-2.87109 -3.2617,-2.87109 -3.2617,-8.24219 v -18.57422 h 7.539 v 18.14453 q 0,3.02735 1.2696,4.51172 1.2695,1.48438 4.1211,1.48438 2.8125,0 4.1015,-1.42578 1.3086,-1.42578 1.3086,-4.57032 v -18.14453 h 7.5391 z"
              id="path2151" inkscape:connector-curvature="0" />
            <path
              d="m 1333.1172,979.24126 q 0,4.29687 -3.6524,6.99219 -3.6328,2.67578 -9.8828,2.67578 -3.6132,0 -6.3086,-0.625 -2.6757,-0.64453 -5.0195,-1.6211 v -6.97265 h 0.8203 q 2.3242,1.85547 5.1953,2.85156 2.8907,0.99609 5.5469,0.99609 0.6836,0 1.7969,-0.11718 1.1133,-0.11719 1.8164,-0.39063 0.8594,-0.35156 1.4062,-0.8789 0.5664,-0.52735 0.5664,-1.5625 0,-0.95704 -0.8203,-1.64063 -0.8007,-0.70312 -2.3632,-1.07422 -1.6407,-0.39062 -3.4766,-0.72265 -1.8164,-0.35157 -3.418,-0.87891 -3.6719,-1.19141 -5.2929,-3.22266 -1.6016,-2.05078 -1.6016,-5.07812 0,-4.0625 3.6328,-6.6211 3.6523,-2.57812 9.375,-2.57812 2.8711,0 5.6641,0.56641 2.8125,0.54687 4.8632,1.38671 v 6.69922 h -0.8007 q -1.7578,-1.40625 -4.3164,-2.34375 -2.5391,-0.95703 -5.1954,-0.95703 -0.9375,0 -1.875,0.13672 -0.9179,0.11719 -1.7773,0.46875 -0.7617,0.29297 -1.3086,0.89844 -0.5469,0.58594 -0.5469,1.34765 0,1.15235 0.8789,1.77735 0.8789,0.60547 3.3204,1.11328 1.6015,0.33203 3.0664,0.64453 1.4843,0.3125 3.1836,0.85938 3.3398,1.09375 4.9218,2.98828 1.6016,1.875 1.6016,4.88281 z"
              id="path2153" inkscape:connector-curvature="0" />
            <path
              d="m 1353.9961,988.38188 h -17.0313 v -5.15625 h 4.7657 V 964.4561 h -4.7657 v -5.15625 h 17.0313 v 5.15625 h -4.7656 v 18.76953 h 4.7656 z"
              id="path2155" inkscape:connector-curvature="0" />
            <path
              d="m 1388.4297,973.85063 q 0,6.95313 -3.9844,11.05469 -3.9844,4.08203 -11.0156,4.08203 -7.0117,0 -10.9961,-4.08203 -3.9844,-4.10156 -3.9844,-11.05469 0,-7.01171 3.9844,-11.07421 3.9844,-4.08204 10.9961,-4.08204 6.9922,0 10.9961,4.08204 4.0039,4.0625 4.0039,11.07421 z m -9.9414,7.36329 q 1.0937,-1.32813 1.6211,-3.125 0.5273,-1.81641 0.5273,-4.25782 0,-2.61718 -0.6054,-4.45312 -0.6055,-1.83594 -1.5821,-2.96875 -0.9961,-1.17188 -2.3047,-1.69922 -1.289,-0.52734 -2.6953,-0.52734 -1.4258,0 -2.6953,0.50781 -1.25,0.50781 -2.3047,1.67969 -0.9765,1.09375 -1.6015,3.02734 -0.6055,1.91406 -0.6055,4.45312 0,2.59766 0.5859,4.4336 0.6055,1.8164 1.5821,2.96875 0.9765,1.15234 2.2851,1.69922 1.3086,0.54687 2.7539,0.54687 1.4453,0 2.7539,-0.54687 1.3086,-0.56641 2.2852,-1.73828 z"
              id="path2157" inkscape:connector-curvature="0" />
            <path
              d="m 1420.5781,988.38188 h -7.2265 l -12.3438,-19.96093 v 19.96093 h -6.875 v -29.08203 h 8.9649 l 10.6054,16.66016 v -16.66016 h 6.875 z"
              id="path2159" inkscape:connector-curvature="0" />
          </g>
          <g id="g5409" transform="matrix(0.11887207,0,0,0.13715043,-34.030241,-64.943018)" inkscape:export-xdpi="96"
            inkscape:export-ydpi="96">
            <path inkscape:export-ydpi="96" inkscape:export-xdpi="96" inkscape:connector-curvature="0"
              d="m 578.28334,509.97301 v 31.79085 31.79076 l -2.49806,0.98163 c -1.37475,0.53953 -7.9997,2.01443 -14.72055,3.27791 -23.60003,4.43658 -57.04539,19.05813 -76.38827,33.39592 -3.4521,2.55879 -6.66749,4.65321 -7.14638,4.65321 -0.47879,0 -10.97064,-10.12633 -23.31558,-22.50204 l -22.44563,-22.50022 -5.33711,5.06831 c -6.15251,5.84417 -30.78849,30.53167 -34.49758,34.56992 l -2.49988,2.72215 22.21837,22.20268 c 12.21986,12.2119 22.21837,22.71767 22.21837,23.34476 0,0.62708 -3.30575,6.09774 -7.34519,12.15872 -9.75507,14.63706 -20.51281,37.37571 -24.83715,52.49711 -1.92854,6.74352 -4.18516,14.51821 -5.01575,17.27693 -0.8306,2.75872 -1.82782,7.02355 -2.2158,9.4758 -0.38799,2.45216 -0.93605,5.58622 -1.21804,6.96563 l -0.51306,2.50834 H 360.53126 328.3382 v 30.09476 30.09485 h 32.19306 32.19479 l 0.51306,2.50834 c 0.28199,1.37932 0.83005,4.51521 1.21804,6.96736 0.38798,2.45225 1.38593,6.71534 2.21752,9.47398 0.83169,2.75872 3.07485,10.28239 4.98558,16.71935 4.5385,15.28941 15.11153,37.75734 24.61707,52.31358 4.1767,6.39601 7.59372,12.0521 7.59372,12.57028 0,0.51808 -10.05406,11.02787 -22.34264,23.35356 l -22.34263,22.40947 21.2276,21.30132 21.22941,21.29947 22.50781,-22.56432 c 12.37958,-12.41047 22.90515,-22.56443 23.39022,-22.56443 0.48507,0 4.73032,2.66861 9.43309,5.93055 20.03783,13.8986 56.36306,29.27521 78.01818,33.0254 3.95072,0.6841 8.55731,1.5194 10.2375,1.8545 l 3.05376,0.6093 v 32.2344 32.2361 h 29.99499 29.99326 v -32.3021 -32.3038 l 2.49988,-0.5523 c 1.37466,-0.3042 5.73099,-1.1088 9.68171,-1.7868 21.66594,-3.71842 58.58359,-19.29907 78.04127,-32.93626 4.7155,-3.3049 8.99356,-6.00899 9.50772,-6.00899 0.51407,0 10.9032,10.0249 23.08651,22.27757 12.1834,12.25267 22.43654,22.28538 22.78479,22.29358 0.34826,0.01 9.95079,-9.33419 21.33951,-20.76148 16.47928,-16.5351 20.49899,-21.14353 19.68831,-22.57155 -0.56025,-0.98692 -10.53722,-11.26822 -22.17219,-22.84591 -11.63507,-11.57758 -21.15488,-21.48253 -21.15488,-22.01028 0,-0.52785 2.59024,-4.59785 5.75609,-9.04473 13.14063,-18.45741 28.6176,-54.91296 32.72921,-77.09239 0.91932,-4.95877 1.89464,-10.14511 2.16617,-11.52452 l 0.49352,-2.50834 h 32.19306 32.19479 v -30.09476 -30.09476 h -32.16461 -32.16642 l -0.72969,-4.17945 c -5.4231,-31.02184 -16.9989,-60.5115 -33.37556,-85.02897 -3.9038,-5.84444 -7.09656,-11.08853 -7.09656,-11.65277 0,-0.56415 8.87184,-9.85059 19.71677,-20.63684 10.84483,-10.78615 20.87643,-20.90773 22.29109,-22.4931 l 2.57269,-2.8825 -16.93808,-17.03467 c -9.31545,-9.36871 -18.87935,-18.7938 -21.25251,-20.94495 l -4.31442,-3.9122 -22.61253,22.67133 -22.61426,22.66951 -10.91747,-7.32728 c -21.39359,-14.35768 -50.31836,-26.72409 -72.571,-31.02832 -6.41532,-1.24086 -12.78837,-2.48919 -14.16303,-2.77378 l -2.49988,-0.51845 v -32.30201 -32.30392 h -29.99326 z m 29.99326,123.36323 c 25.99164,0.0383 48.51863,5.27117 70.12794,16.28819 32.89894,16.7728 58.82058,44.35355 73.13561,77.82108 6.17488,14.43575 8.20932,21.36024 10.61384,36.1073 2.10572,12.90995 2.10653,39.48911 0,52.38665 -9.91979,60.74409 -57.4821,112.0257 -116.97401,126.12092 -10.11478,2.39642 -15.16635,2.87958 -33.56899,3.21022 -22.49218,0.40407 -27.98209,-0.083 -44.04976,-3.9121 -10.27804,-2.44933 -14.846,-4.28079 -31.42246,-12.59341 -13.6017,-6.82087 -22.53299,-13.00919 -34.09634,-23.62797 -25.41512,-23.33901 -43.42624,-56.1592 -48.68898,-88.72025 -1.93727,-11.98588 -2.2518,-39.17935 -0.57888,-50.07779 1.42011,-9.25114 4.48814,-22.51919 5.54127,-23.96463 0.44671,-0.61313 1.70456,-3.87362 2.79468,-7.24538 11.28227,-34.89828 42.18767,-69.11612 78.05364,-86.4185 22.62608,-10.91522 42.84373,-15.41273 69.11417,-15.37433 z"
              style="opacity:1;vector-effect:none;fill:#fdb927;fill-opacity:1;stroke:none;stroke-width:0.94778502;stroke-linecap:butt;stroke-linejoin:miter;stroke-miterlimit:4;stroke-dasharray:none;stroke-dashoffset:0;stroke-opacity:1"
              id="path854" />
            <g inkscape:export-ydpi="96" inkscape:export-xdpi="96"
              style="fill:#552582;fill-opacity:1;stroke:none;stroke-opacity:1"
              transform="matrix(0.90904647,0,0,0.91212543,1427.9347,-405.81875)" id="g5349">
              <path
                style="opacity:1;vector-effect:none;fill:#552582;fill-opacity:1;stroke:none;stroke-width:3.40699387;stroke-linecap:butt;stroke-linejoin:miter;stroke-miterlimit:4;stroke-dasharray:none;stroke-dashoffset:0;stroke-opacity:1"
                d="m -959.86665,1404.2322 c -18.42039,-6.0809 -31.16209,-17.5717 -39.37372,-35.5082 -13.38283,-29.232 -4.03313,-60.875 23.18499,-78.4669 l 11.63824,-7.5221 -3.72476,-4.5999 c -2.04861,-2.53 -3.72475,-6.0945 -3.72475,-7.9213 0,-4.0101 35.05549,-44.6455 40.24938,-46.6561 2.07002,-0.8013 16.98364,1.6062 34.21024,5.5224 26.99355,6.1367 31.17913,7.641 36.04038,12.9522 10.19846,11.1425 7.32623,20.481 -13.20894,42.946 l -10.96912,12 -7.66097,-7.3291 c -4.21353,-4.031 -11.48348,-9.2956 -16.15543,-11.699 l -8.49445,-4.3699 3.7786,-5.301 c 2.07823,-2.9155 5.67574,-7.0154 7.99446,-9.1109 2.31872,-2.0955 4.21585,-4.5067 4.21585,-5.3582 0,-0.8516 -5.12901,-2.613 -11.39779,-3.9144 l -11.3978,-2.3662 -7.64061,8.7244 c -4.20234,4.7984 -10.21723,11.8743 -13.36643,15.7243 l -5.72581,7 12.26422,0.2142 c 6.74532,0.1178 15.58487,1.6242 19.64345,3.3475 11.63423,4.94 25.60717,19.1396 31.92069,32.4383 7.62079,16.0525 8.01306,36.9811 0.97464,52 -5.71892,12.2034 -21.93265,27.7097 -34.6931,33.1794 -10.46105,4.4842 -30.82574,6.6348 -38.58146,4.0745 z m 32.71382,-25.0054 c 8.25127,-3.4476 18.01201,-15.1089 21.00332,-25.093 8.5195,-28.4356 -8.79891,-52.1555 -38.07982,-52.1555 -33.23151,0 -51.61399,46.7031 -27.31307,69.3924 10.72097,10.0099 30.75067,13.5548 44.38957,7.8561 z"
                id="path5340" inkscape:connector-curvature="0" />
              <path
                style="opacity:1;vector-effect:none;fill:#552582;fill-opacity:1;stroke:none;stroke-width:3.40699387;stroke-linecap:butt;stroke-linejoin:miter;stroke-miterlimit:4;stroke-dasharray:none;stroke-dashoffset:0;stroke-opacity:1"
                d="m -832.32335,1418.4783 c -1.81013,-2.0592 -5.80264,-18.4701 -9.6987,-39.8657 l -6.62206,-36.3658 -9.20692,-1.2663 c -5.06381,-0.6965 -10.17432,-1.8819 -11.35669,-2.6342 -2.19715,-1.3981 -7.40466,-22.2889 -5.92489,-23.7687 1.80159,-1.8016 39.97686,6.3445 43.42798,9.2669 2.75909,2.3364 5.53416,12.803 10.90615,41.1338 8.65236,45.6311 9.00972,50.5343 3.95253,54.2322 -5.17767,3.786 -11.78029,3.4737 -15.4774,-0.7322 z"
                id="path5342" inkscape:connector-curvature="0" />
              <path
                style="opacity:1;vector-effect:none;fill:#552582;fill-opacity:1;stroke:none;stroke-width:3.40699387;stroke-linecap:butt;stroke-linejoin:miter;stroke-miterlimit:4;stroke-dasharray:none;stroke-dashoffset:0;stroke-opacity:1"
                d="m -853.15265,1237.9952 c -11.807,-4.7647 -14.3951,-21.8339 -4.91867,-32.4399 4.79589,-5.3675 7.24557,-6.4861 14.20467,-6.4861 6.9591,0 9.40878,1.1186 14.20467,6.4861 8.30267,9.2923 7.96209,18.6563 -1.00467,27.623 -7.0043,7.0043 -13.57667,8.4122 -22.486,4.8169 z"
                id="path5344" inkscape:connector-curvature="0" />
            </g>
          </g>
          <path
            style="opacity:1;vector-effect:none;fill:#552582;fill-opacity:1;stroke:#552582;stroke-width:0.18663917;stroke-linecap:butt;stroke-linejoin:miter;stroke-miterlimit:4;stroke-dasharray:none;stroke-dashoffset:0;stroke-opacity:1"
            d="m 167.72724,59.830563 v -1.18518 l 0.58717,-0.18509 c 1.32152,-0.41658 2.03247,-1.3829 2.25687,-3.06756 0.0757,-0.56821 0.11414,-7.72571 0.11414,-21.23942 v -20.38237 l -1.67083,0.0445 c -1.99017,0.053 -2.53459,0.23049 -3.29204,1.07294 -0.90491,1.00649 -1.43385,2.44084 -2.04095,5.53447 -0.18921,0.96416 -0.36799,1.86395 -0.39731,1.99952 -0.0524,0.24231 -0.0813,0.24653 -1.69463,0.24653 h -1.64135 v -6.62852 -6.6285496 h 14.5718 14.57179 v 6.6313996 6.63136 l -1.65664,-0.0303 -1.65664,-0.0302 -0.40792,-2.03304 c -0.65019,-3.24062 -1.17747,-4.68821 -2.08187,-5.71566 -0.69454,-0.78905 -1.32392,-0.9875 -3.32019,-1.04692 l -1.61824,-0.0481 0.0304,20.85623 c 0.0287,19.65145 0.0417,20.89397 0.22603,21.50963 0.10757,0.35938 0.30505,0.85239 0.43884,1.09562 0.2853,0.5187 1.11014,1.10816 1.79032,1.27943 l 0.47696,0.12011 v 1.19215 1.19219 h -6.79288 -6.79287 z"
            id="path2070" inkscape:connector-curvature="0" />
          <path
            style="opacity:1;vector-effect:none;fill:#552582;fill-opacity:1;stroke:#552582;stroke-width:0.18663917;stroke-linecap:butt;stroke-linejoin:miter;stroke-miterlimit:4;stroke-dasharray:none;stroke-dashoffset:0;stroke-opacity:1"
            d="m 74.887054,59.942923 v -1.18236 l 0.579051,-0.28399 c 1.209219,-0.59305 1.579273,-1.10151 1.906494,-2.61958 0.187737,-0.87097 0.198731,-2.00089 0.198731,-20.42407 0,-15.3316 -0.02996,-19.67783 -0.14007,-20.32383 -0.255759,-1.50039 -0.830971,-2.32073 -2.019296,-2.87979 l -0.515926,-0.24272 -0.0045,-1.24209 -0.0045,-1.2420696 8.189788,0.0475 c 6.972865,0.0404 8.339101,0.0743 9.194652,0.22769 4.443362,0.7968096 7.25868,3.1165496 8.583872,7.0728296 1.32808,3.96492 1.25022,10.04478 -0.18466,14.4191 -1.317045,4.01514 -3.70716,6.64075 -7.09548,7.7946 -1.515485,0.51608 -2.454355,0.63129 -5.102991,0.62615 -1.356145,-0.003 -2.650351,-0.0394 -2.876016,-0.0817 l -0.410301,-0.077 8.69e-4,7.26347 c 0.0013,9.21404 0.06794,9.8949 1.071867,10.92594 0.371514,0.38155 0.707527,0.59887 1.200652,0.77655 l 0.684766,0.24673 v 1.19052 1.19049 h -6.628473 -6.628524 z m 14.322659,-24.73772 c 2.748368,-0.5677 4.234232,-2.62151 4.789283,-6.61994 0.508844,-3.66555 0.240423,-8.27044 -0.630551,-10.81736 -0.7081,-2.07068 -2.00135,-3.30491 -3.880034,-3.70302 -0.744903,-0.15784 -3.570981,-0.22188 -4.055978,-0.0919 l -0.246515,0.066 v 10.66958 10.66954 h 1.593273 c 1.024778,0 1.892013,-0.0617 2.430522,-0.17293 z"
            id="path2072" inkscape:connector-curvature="0" />
          <path
            style="opacity:1;vector-effect:none;fill:#552582;fill-opacity:1;stroke:#552582;stroke-width:0.18663917;stroke-linecap:butt;stroke-linejoin:miter;stroke-miterlimit:4;stroke-dasharray:none;stroke-dashoffset:0;stroke-opacity:1"
            d="m 106.11233,59.829283 v -1.18646 l 0.57497,-0.26525 c 0.78089,-0.36025 1.43536,-1.03288 1.65357,-1.69943 0.39916,-1.21934 0.40795,-1.73216 0.3766,-21.95737 -0.0294,-18.93524 -0.0404,-19.91384 -0.23133,-20.47669 -0.11027,-0.3251 -0.32662,-0.78169 -0.48077,-1.01461 -0.2798,-0.42282 -1.45367,-1.29767 -1.74118,-1.29767 -0.12063,0 -0.15186,-0.25908 -0.15186,-1.25999 V 9.4118434 h 6.46418 6.46418 v 1.2381296 1.23814 l -0.48087,0.23363 c -1.04006,0.50532 -1.54818,1.16569 -1.89548,2.46348 -0.16286,0.60859 -0.18883,1.63584 -0.22442,8.87802 l -0.0403,8.18978 h 5.64822 5.64823 l -8.7e-4,-7.64198 c -8.7e-4,-7.89006 -0.0542,-9.11259 -0.44185,-10.14879 -0.25535,-0.6825 -0.98915,-1.43151 -1.72111,-1.75679 l -0.46564,-0.20695 v -1.24333 -1.2433396 h 6.46418 6.46418 l -0.004,1.2325896 -0.004,1.23258 -0.56526,0.26557 c -0.89826,0.42202 -1.45137,1.05454 -1.74817,1.99918 l -0.2523,0.80298 v 20.32382 20.32383 l 0.25332,0.80636 c 0.20239,0.64422 0.35745,0.91046 0.77123,1.32426 0.29008,0.29007 0.74494,0.6046 1.03403,0.71501 l 0.51614,0.19711 v 1.19029 1.1903 h -6.46417 -6.46419 v -1.18154 -1.18154 l 0.67833,-0.32216 c 0.93514,-0.44412 1.34267,-0.88527 1.64275,-1.77833 l 0.24887,-0.74063 0.0352,-9.72365 0.0353,-9.72368 h -5.64787 -5.64793 l 8.7e-4,8.84716 c 8.7e-4,8.78977 0.0462,10.11653 0.38618,11.28594 0.21615,0.74353 0.91512,1.52382 1.69018,1.88684 l 0.5523,0.25869 v 1.18646 1.18644 h -6.46418 -6.46418 z"
            id="path2074" inkscape:connector-curvature="0" />
          <path
            style="opacity:1;vector-effect:none;fill:#552582;fill-opacity:1;stroke:#552582;stroke-width:0.18663917;stroke-linecap:butt;stroke-linejoin:miter;stroke-miterlimit:4;stroke-dasharray:none;stroke-dashoffset:0;stroke-opacity:1"
            d="m 142.92555,59.837953 2.4e-4,-1.17781 0.59929,-0.31313 c 1.26835,-0.66272 1.72563,-1.48788 1.92118,-3.46677 0.13314,-1.34736 0.13475,-37.80996 0.002,-39.28412 -0.17331,-1.92058 -0.70363,-2.84978 -1.96314,-3.43969 l -0.55958,-0.2621 v -1.24124 -1.2412496 h 6.46418 6.46418 v 1.2341096 1.2341 l -0.54534,0.25891 c -0.66628,0.31634 -1.24243,0.86014 -1.54996,1.46296 -0.57591,1.12886 -0.56336,0.72008 -0.61301,19.96845 -0.0489,18.94232 -0.003,21.54398 0.39981,22.84833 0.28449,0.92045 0.79248,1.5148 1.64428,1.92384 l 0.66134,0.3176 0.001,1.17781 10e-4,1.17777 h -6.46394 -6.46418 l 2.4e-4,-1.17777 z"
            id="path2076" inkscape:connector-curvature="0" />
          <path
            style="opacity:1;vector-effect:none;fill:#552582;fill-opacity:1;stroke:#552582;stroke-width:0.18663917;stroke-linecap:butt;stroke-linejoin:miter;stroke-miterlimit:4;stroke-dasharray:none;stroke-dashoffset:0;stroke-opacity:1"
            d="m 204.77326,61.557253 c -6.27812,-0.84689 -10.30042,-5.89011 -11.87911,-14.89419 -1.08894,-6.21072 -1.13392,-14.73649 -0.11042,-20.92642 1.52954,-9.25025 5.43324,-14.93725 11.33215,-16.5088496 0.99741,-0.26574 1.27732,-0.29205 3.12252,-0.29353 1.67538,-0.003 2.19905,0.0383 3.01949,0.22859 2.40054,0.55667 4.02447,1.4597496 5.74752,3.1961996 1.29379,1.30385 2.03241,2.3533 2.89949,4.11957 1.42976,2.91253 2.37491,6.72016 2.86919,11.55885 0.27975,2.7385 0.28087,10.50961 0.002,13.23352 -0.81363,7.94491 -2.78822,13.35095 -6.09677,16.6917 -1.83973,1.85764 -3.87479,2.95177 -6.40185,3.44186 -1.09115,0.21163 -3.46955,0.29225 -4.50412,0.1527 z m 4.25203,-4.64995 c 2.08448,-1.03485 3.63171,-4.25527 4.44804,-9.25818 0.8739,-5.3556 0.996,-14.87417 0.27689,-21.58379 -0.7658,-7.14525 -2.4592,-11.36299 -5.01627,-12.49412 -1.72094,-0.76126 -3.72102,-0.32365 -5.04199,1.10315 -2.08718,2.25441 -3.22511,6.51107 -3.68593,13.78805 -0.14656,2.31428 -0.14632,10.15156 2.4e-4,12.55819 0.544,8.9243 2.06208,13.84184 4.81929,15.61115 0.83577,0.53629 1.33884,0.66074 2.52227,0.62393 0.88822,-0.0277 1.13415,-0.0787 1.67732,-0.34838 z"
            id="path2078" inkscape:connector-curvature="0" />
        </svg>
