<?xml version="1.0" encoding="UTF-8"?>
<svg xmlns="http://www.w3.org/2000/svg" xmlns:xlink="http://www.w3.org/1999/xlink" width="256px" height="256px" viewBox="0 0 256 256" version="1.1">
<g id="surface1">
<path style=" stroke:none;fill-rule:nonzero;fill:rgb(3.921569%,40%,76.078431%);fill-opacity:1;" d="M 242.25 240.675781 C 243.355469 240.6875 244.414062 240.160156 245.175781 239.210938 C 245.9375 238.265625 246.335938 236.984375 246.273438 235.675781 C 246.273438 232.132812 244.464844 230.4375 240.761719 230.4375 L 234.777344 230.4375 L 234.777344 248.996094 L 237.03125 248.996094 L 237.03125 240.90625 L 239.796875 240.90625 L 239.859375 241.007812 L 244.152344 248.996094 L 246.558594 248.996094 L 241.941406 240.726562 Z M 239.644531 238.816406 L 237.035156 238.816406 L 237.035156 232.542969 L 240.34375 232.542969 C 242.054688 232.542969 244 232.875 244 235.523438 C 244 238.574219 242.03125 238.816406 239.632812 238.816406 "/>
<path style=" stroke:none;fill-rule:nonzero;fill:rgb(3.921569%,40%,76.078431%);fill-opacity:1;" d="M 183.535156 217.417969 L 151.617188 217.417969 L 151.617188 158.207031 C 151.617188 144.089844 151.40625 125.914062 135.019531 125.914062 C 118.394531 125.914062 115.851562 141.296875 115.851562 157.179688 L 115.851562 217.414062 L 83.933594 217.414062 L 83.933594 95.652344 L 114.574219 95.652344 L 114.574219 112.292969 L 115.003906 112.292969 C 121.25 99.640625 132.867188 92.082031 145.234375 92.625 C 177.585938 92.625 183.546875 117.832031 183.546875 150.621094 Z M 47.921875 79.007812 C 37.691406 79.011719 29.398438 69.191406 29.398438 57.070312 C 29.394531 44.953125 37.6875 35.128906 47.914062 35.128906 C 58.144531 35.125 66.4375 44.945312 66.441406 57.0625 C 66.441406 69.183594 58.152344 79.007812 47.921875 79.007812 M 63.878906 217.417969 L 31.929688 217.417969 L 31.929688 95.652344 L 63.878906 95.652344 Z M 199.449219 0.015625 L 15.890625 0.015625 C 7.214844 -0.101562 0.101562 8.132812 -0.00390625 18.410156 L -0.00390625 236.753906 C 0.0976562 247.035156 7.210938 255.273438 15.890625 255.164062 L 199.449219 255.164062 C 208.144531 255.292969 215.285156 247.054688 215.40625 236.753906 L 215.40625 18.394531 C 215.28125 8.09375 208.140625 -0.136719 199.449219 0 "/>
<path style=" stroke:none;fill-rule:nonzero;fill:rgb(3.921569%,40%,76.078431%);fill-opacity:1;" d="M 239.917969 222.171875 C 231.835938 222.265625 225.332031 230.078125 225.371094 239.65625 C 225.410156 249.234375 231.976562 256.972656 240.058594 256.972656 C 248.144531 256.972656 254.710938 249.234375 254.75 239.65625 C 254.785156 230.078125 248.285156 222.265625 240.199219 222.171875 L 239.917969 222.171875 M 239.917969 254.980469 C 232.804688 255.121094 226.945312 248.402344 226.828125 239.976562 C 226.707031 231.554688 232.378906 224.609375 239.488281 224.46875 C 246.601562 224.328125 252.464844 231.046875 252.582031 239.46875 C 252.582031 239.558594 252.582031 239.640625 252.582031 239.726562 C 252.730469 247.96875 247.210938 254.792969 240.253906 254.972656 L 239.921875 254.972656 "/>
</g>
</svg>
