<?xml version="1.0" encoding="UTF-8"?>
<svg xmlns="http://www.w3.org/2000/svg" xmlns:xlink="http://www.w3.org/1999/xlink" width="256px" height="256px" viewBox="0 0 256 256" version="1.1">
<g id="surface1">
<path style=" stroke:none;fill-rule:nonzero;fill:rgb(100%,100%,100%);fill-opacity:1;" d="M 234.667969 118.855469 L 192 155.429688 L 149.332031 155.429688 L 112 187.429688 L 112 155.429688 L 64 155.429688 L 64 18.285156 L 234.667969 18.285156 Z M 234.667969 118.855469 "/>
<path style=" stroke:none;fill-rule:nonzero;fill:rgb(56.862745%,27.45098%,100%);fill-opacity:1;" d="M 53.332031 0 L 0 45.714844 L 0 210.285156 L 64 210.285156 L 64 256 L 117.332031 210.285156 L 160 210.285156 L 256 128 L 256 0 Z M 234.667969 118.855469 L 192 155.429688 L 149.332031 155.429688 L 112 187.429688 L 112 155.429688 L 64 155.429688 L 64 18.285156 L 234.667969 18.285156 Z M 234.667969 118.855469 "/>
<path style=" stroke:none;fill-rule:nonzero;fill:rgb(56.862745%,27.45098%,100%);fill-opacity:1;" d="M 181.332031 50.285156 L 202.667969 50.285156 L 202.667969 105.144531 L 181.332031 105.144531 Z M 181.332031 50.285156 "/>
<path style=" stroke:none;fill-rule:nonzero;fill:rgb(56.862745%,27.45098%,100%);fill-opacity:1;" d="M 122.667969 50.285156 L 144 50.285156 L 144 105.144531 L 122.667969 105.144531 Z M 122.667969 50.285156 "/>
</g>
</svg>
