<?xml version="1.0" encoding="UTF-8"?>
<svg xmlns="http://www.w3.org/2000/svg" xmlns:xlink="http://www.w3.org/1999/xlink" width="256px" height="256px" viewBox="0 0 256 256" version="1.1">
<g id="surface1">
<path style=" stroke:none;fill-rule:nonzero;fill:rgb(11.372549%,60.784314%,94.117647%);fill-opacity:1;" d="M 229.109375 64.363281 C 229.265625 67.085938 229.265625 69.808594 229.265625 72.558594 C 229.265625 156.296875 176.824219 252.875 80.9375 252.875 L 80.9375 252.824219 C 52.613281 252.875 24.878906 243.011719 1.03125 224.414062 C 5.152344 225.015625 9.289062 225.316406 13.441406 225.332031 C 36.914062 225.355469 59.714844 215.78125 78.183594 198.148438 C 55.875 197.632812 36.316406 179.953125 29.480469 154.140625 C 37.296875 155.972656 45.347656 155.59375 53.015625 153.046875 C 28.695312 147.074219 11.199219 121.097656 11.199219 90.929688 C 11.199219 90.652344 11.199219 90.390625 11.199219 90.128906 C 18.445312 95.035156 26.558594 97.757812 34.859375 98.058594 C 11.953125 79.449219 4.894531 42.402344 18.726562 13.441406 C 45.191406 53.03125 84.242188 77.101562 126.164062 79.648438 C 121.960938 57.636719 127.699219 34.574219 141.242188 19.097656 C 162.238281 -4.894531 195.261719 -3.664062 215 21.847656 C 226.671875 19.050781 237.863281 13.839844 248.101562 6.460938 C 244.210938 21.132812 236.066406 33.59375 225.1875 41.511719 C 235.519531 40.03125 245.617188 36.667969 255.121094 31.535156 C 248.125 44.285156 239.308594 55.390625 229.109375 64.363281 Z M 229.109375 64.363281 "/>
</g>
</svg>
