<?xml version="1.0" encoding="utf-8"?>
<!-- Generator: Adobe Illustrator 25.0.1, SVG Export Plug-In . SVG Version: 6.00 Build 0)  -->
<svg version="1.1" id="Layer_1" xmlns="http://www.w3.org/2000/svg" xmlns:xlink="http://www.w3.org/1999/xlink" x="0px" y="0px"
	 viewBox="0 0 500 500" style="enable-background:new 0 0 500 500;" xml:space="preserve">
<style type="text/css">
	.st0{fill:#95DF00;}
	.st1{clip-path:url(#SVGID_2_);fill:#FFFFFF;}
</style>
<rect class="st0" width="500" height="500"/>
<g>
	<defs>
		<rect id="SVGID_1_" y="1.2" width="500" height="497.6"/>
	</defs>
	<clipPath id="SVGID_2_">
		<use xlink:href="#SVGID_1_"  style="overflow:visible;"/>
	</clipPath>
	<path class="st1" d="M359.7,303.7c-31.1,0-51.7-24-57.4-33.4c7.4-59,28.9-77.6,57.4-77.6c28.2,0,50.1,22.5,50.1,55.5
		S387.8,303.7,359.7,303.7 M359.7,156.5c-50.7,0-79.1,33.1-87.2,67.1c-9.2-17.3-16-40.5-21.4-62.1h-33.1h-37v87.2
		c0,31.7-14.4,55.1-42.6,55.1S94,280.5,94,248.8l0.3-87.2H53.9v87.2c0,25.5,8.3,48.6,23.3,65c15.5,17,36.6,25.9,61.2,25.9
		c48.8,0,82.8-37.4,82.8-91v-58.6c5.1,19.3,17.2,56.4,40.4,88.9l-21.7,123.4h41.1l14.3-87.5c4.7,3.9,9.7,7.4,14.9,10.5
		c13.7,8.7,29.5,13.6,45.7,14.1h0.1c1.2,0,2.4,0.1,3.7,0.1c50.3,0,90.3-38.9,90.3-91.4S409.9,156.5,359.7,156.5"/>
	<path class="st1" d="M359.7,775.8c-31.1,0-51.7-24-57.4-33.4c7.4-59,28.9-77.6,57.4-77.6c28.2,0,50.1,22.5,50.1,55.5
		C409.8,753.2,387.8,775.8,359.7,775.8 M359.7,628.6c-50.7,0-79.1,33.1-87.2,67.1c-9.2-17.3-16-40.5-21.4-62.1h-33.1h-37v87.2
		c0,31.7-14.4,55.1-42.6,55.1S94,752.5,94,720.8l0.3-87.2H53.9v87.2c0,25.5,8.3,48.6,23.3,65c15.5,17,36.6,25.9,61.2,25.9
		c48.8,0,82.8-37.4,82.8-91v-58.6c5.1,19.3,17.2,56.4,40.4,88.9l-21.7,123.4h41.1l14.3-87.5c4.7,3.9,9.7,7.4,14.9,10.5
		c13.7,8.7,29.5,13.6,45.7,14.1h0.1c1.2,0,2.4,0.1,3.7,0.1c50.3,0,90.3-38.9,90.3-91.4C450,667.8,409.9,628.6,359.7,628.6"/>
</g>
</svg>
